<?xml version="1.0" encoding="UTF-8" standalone="no" ?>
<!DOCTYPE svg PUBLIC "-//W3C//DTD SVG 1.1//EN" "http://www.w3.org/Graphics/SVG/1.1/DTD/svg11.dtd">
<svg xmlns="http://www.w3.org/2000/svg" xmlns:xlink="http://www.w3.org/1999/xlink" version="1.1" width="500" height="500" viewBox="0 0 500 500" xml:space="preserve">
<!-- Created with SVG Stack Editor - https://svgstack.com -->
<defs>
</defs>
<rect x="0" y="0" width="100%" height="100%" fill="transparent"></rect>
<g transform="matrix(1.59 0 0 1.59 250 250)"  >
<g style=""   >
		<g transform="matrix(1 0 0 1 0 0)" id="path_0"  >
<path style="stroke: none; stroke-width: 1; stroke-dasharray: none; stroke-linecap: butt; stroke-dashoffset: 0; stroke-linejoin: miter; stroke-miterlimit: 4; fill: rgb(255,255,255); fill-rule: nonzero; opacity: 1;"  transform=" translate(-128, -157.2)" d="M 213.803394 167.030943 C 214.2452 214.609646 255.542482 230.442639 256 230.644727 C 255.650812 231.761357 249.401383 253.208293 234.24263 275.361446 C 221.138555 294.513969 207.538253 313.596333 186.113759 313.991545 C 165.062051 314.379442 158.292752 301.507828 134.22469 301.507828 C 110.163898 301.507828 102.642899 313.596301 82.7151126 314.379442 C 62.0350407 315.16201 46.2873831 293.668525 33.0744079 274.586162 C 6.07529317 235.552544 -14.5576169 164.286328 13.147166 116.18047 C 26.9103111 92.2909053 51.5060917 77.1630356 78.2026125 76.7751096 C 98.5099145 76.3877456 117.677594 90.4371851 130.091705 90.4371851 C 142.497945 90.4371851 165.790755 73.5415029 190.277627 76.0228474 C 200.528668 76.4495055 229.303509 80.1636878 247.780625 107.209389 C 246.291825 108.132333 213.44635 127.253405 213.803394 167.030988 M 174.239142 50.1987033 C 185.218331 36.9088319 192.607958 18.4081019 190.591988 0 C 174.766312 0.636050225 155.629514 10.5457909 144.278109 23.8283506 C 134.10507 35.5906758 125.195775 54.4170275 127.599657 72.4607932 C 145.239231 73.8255433 163.259413 63.4970262 174.239142 50.1987249" stroke-linecap="round" />
</g>
</g>
</g>
<g transform="matrix(1.59 0 0 1.59 250 250)"  >
<g style=""   >
		<g transform="matrix(1 0 0 1 0 0)" id="path_0"  >
<path style="stroke: none; stroke-width: 1; stroke-dasharray: none; stroke-linecap: butt; stroke-dashoffset: 0; stroke-linejoin: miter; stroke-miterlimit: 4; fill: rgb(255,255,255); fill-rule: nonzero; opacity: 1;"  transform=" translate(-128, -157.2)" d="M 213.803394 167.030943 C 214.2452 214.609646 255.542482 230.442639 256 230.644727 C 255.650812 231.761357 249.401383 253.208293 234.24263 275.361446 C 221.138555 294.513969 207.538253 313.596333 186.113759 313.991545 C 165.062051 314.379442 158.292752 301.507828 134.22469 301.507828 C 110.163898 301.507828 102.642899 313.596301 82.7151126 314.379442 C 62.0350407 315.16201 46.2873831 293.668525 33.0744079 274.586162 C 6.07529317 235.552544 -14.5576169 164.286328 13.147166 116.18047 C 26.9103111 92.2909053 51.5060917 77.1630356 78.2026125 76.7751096 C 98.5099145 76.3877456 117.677594 90.4371851 130.091705 90.4371851 C 142.497945 90.4371851 165.790755 73.5415029 190.277627 76.0228474 C 200.528668 76.4495055 229.303509 80.1636878 247.780625 107.209389 C 246.291825 108.132333 213.44635 127.253405 213.803394 167.030988 M 174.239142 50.1987033 C 185.218331 36.9088319 192.607958 18.4081019 190.591988 0 C 174.766312 0.636050225 155.629514 10.5457909 144.278109 23.8283506 C 134.10507 35.5906758 125.195775 54.4170275 127.599657 72.4607932 C 145.239231 73.8255433 163.259413 63.4970262 174.239142 50.1987249" stroke-linecap="round" />
</g>
</g>
</g>
</svg>